# xmcd
#
# Track frame offsets: 
#        150
#        19230
#        36456
#        50989
#        67639
#        83292
#        98243
#        111303
#        127288
#        143596
#        159686
#        177132
#        189692
#        201586
#        221468
#        236793
#        257530
#        270526
#        285206
#        301325
#        322577
#
# Disc length: 4407 seconds
#
# Revision: 3
# Processed by: cddbd v1.5.2PL0 Copyright (c) Steve Scherf et al.
# Submitted via: ExactAudioCopy v1.3
#
DISCID=2c113515
DTITLE=Various Artist - Fetenhits - Apres Ski Hits and Classics 2006 - 
DTITLE=CD 2
DYEAR=2006
DGENRE=Party
TTITLE0=Opus - Live Is Life
TTITLE1=Vader Abraham - Das Lied der Schlümpfe 2006
TTITLE2=Wolfgang Ambros - Schifoan (live)
TTITLE3=Tim Toupet - Du hast die Haare schön
TTITLE4=Wolfgang Petry - Verlieben, verloren, vergessen, verzeihn
TTITLE5=Discoblaster - Fading
TTITLE6=Hi_Tack - Say Say Say
TTITLE7=Room 5 - Oliver Cheatham - Make Luv
TTITLE8=Sugababes - Push The Button
TTITLE9=Rihanna - Pon De Replay
TTITLE10=A Studio - Polina (02) - S.O.S.
TTITLE11=Axel F. - Popcorn
TTITLE12=Drafi Deutscher - Marmor, Stein und Eisen bricht
TTITLE13=Peter Wackel - Oberbayern Mega-Hitmix
TTITLE14=Klaus and Klaus - Da wird die Sau geschlacht'
TTITLE15=Markus Becker - 10 kleine Jägermeister
TTITLE16=Bloodhound Gang - Foxtrott Uniform Charlie Kilo
TTITLE17=Axel Fischer - Mädchen, mach dich frei
TTITLE18=Jürgen - Hip Hop ist halbschwul
TTITLE19=Udo Jürgens - Ich war noch niemals in New York
TTITLE20=DJ Ötzi - Marc Pircher - Sieben Sünden (Anspieltipp)
EXTD=
EXTT0=
EXTT1=
EXTT2=
EXTT3=
EXTT4=
EXTT5=
EXTT6=
EXTT7=
EXTT8=
EXTT9=
EXTT10=
EXTT11=
EXTT12=
EXTT13=
EXTT14=
EXTT15=
EXTT16=
EXTT17=
EXTT18=
EXTT19=
EXTT20=
PLAYORDER=
